<svg width="112" height="285" viewBox="0 0 112 285" fill="none" xmlns="http://www.w3.org/2000/svg">
<g clip-path="url(#clip0_801_108)">
<rect width="10" height="10" rx="5" fill="#1F2937"/>
<rect x="25.5" width="10" height="10" rx="5" fill="#1F2937"/>
<rect x="51" width="9.52381" height="10" rx="4.7619" fill="#1F2937"/>
<rect x="76" width="10" height="10" rx="5" fill="#1F2937"/>
<rect y="125" width="10" height="10" rx="5" fill="#1F2937"/>
<rect x="25.5" y="125" width="10" height="10" rx="5" fill="#1F2937"/>
<rect x="51" y="125" width="9.52381" height="10" rx="4.7619" fill="#1F2937"/>
<rect x="76" y="125" width="10" height="10" rx="5" fill="#1F2937"/>
<rect y="225" width="10" height="10" rx="5" fill="#1F2937"/>
<rect x="25.5" y="225" width="10" height="10" rx="5" fill="#1F2937"/>
<rect y="275" width="10" height="10" rx="5" fill="#1F2937"/>
<rect x="25.5" y="275" width="10" height="10" rx="5" fill="#1F2937"/>
<rect x="51" y="225" width="9.52381" height="10" rx="4.7619" fill="#1F2937"/>
<rect x="76" y="225" width="10" height="10" rx="5" fill="#1F2937"/>
<rect y="75" width="10.5" height="10" rx="5" fill="#1F2937"/>
<rect y="100" width="10" height="10" rx="5" fill="#1F2937"/>
<rect x="51" y="275" width="9.52381" height="10" rx="4.7619" fill="#1F2937"/>
<rect x="76" y="275" width="10" height="10" rx="5" fill="#1F2937"/>
<rect x="25.5" y="75" width="10.5" height="10" rx="5" fill="#1F2937"/>
<rect x="25.5" y="100" width="10" height="10" rx="5" fill="#1F2937"/>
<rect y="25" width="10.5" height="10" rx="5" fill="#1F2937"/>
<rect y="50" width="10" height="10" rx="5" fill="#1F2937"/>
<rect x="51" y="75" width="10" height="10" rx="5" fill="#1F2937"/>
<rect x="51" y="100" width="9.52381" height="10" rx="4.7619" fill="#1F2937"/>
<rect y="175" width="10.5" height="10" rx="5" fill="#1F2937"/>
<rect y="200" width="10" height="10" rx="5" fill="#1F2937"/>
<rect x="76" y="75" width="10.5" height="10" rx="5" fill="#1F2937"/>
<rect x="76" y="100" width="10" height="10" rx="5" fill="#1F2937"/>
<rect y="150" width="10.5" height="10" rx="5" fill="#1F2937"/>
<rect x="25.5" y="150" width="10.5" height="10" rx="5" fill="#1F2937"/>
<rect x="51" y="150" width="10" height="10" rx="5" fill="#1F2937"/>
<rect x="76" y="150" width="10.5" height="10" rx="5" fill="#1F2937"/>
<rect x="25.5" y="25" width="10.5" height="10" rx="5" fill="#1F2937"/>
<rect x="101" y="125" width="10" height="10" rx="5" fill="#1F2937"/>
<rect x="25.5" y="50" width="10" height="10" rx="5" fill="#1F2937"/>
<rect x="25.5" y="175" width="10.5" height="10" rx="5" fill="#1F2937"/>
<rect x="101" y="75" width="10.5" height="10" rx="5" fill="#1F2937"/>
<rect x="101" y="100" width="10" height="10" rx="5" fill="#1F2937"/>
<rect x="101" y="150" width="10.5" height="10" rx="5" fill="#1F2937"/>
<rect x="25.5" y="200" width="10" height="10" rx="5" fill="#1F2937"/>
<rect x="51" y="25" width="10" height="10" rx="5" fill="#1F2937"/>
<rect x="51" y="50" width="9.52381" height="10" rx="4.7619" fill="#1F2937"/>
<rect x="51" y="175" width="10" height="10" rx="5" fill="#1F2937"/>
<rect x="51" y="200" width="9.52381" height="10" rx="4.7619" fill="#1F2937"/>
<rect y="250" width="10.5" height="10" rx="5" fill="#1F2937"/>
<rect x="25.5" y="250" width="10.5" height="10" rx="5" fill="#1F2937"/>
<rect x="51" y="250" width="10" height="10" rx="5" fill="#1F2937"/>
<rect x="76" y="250" width="10.5" height="10" rx="5" fill="#1F2937"/>
<rect x="76" y="25" width="10.5" height="10" rx="5" fill="#1F2937"/>
<rect x="101" y="225" width="10" height="10" rx="5" fill="#1F2937"/>
<rect x="76" y="50" width="10" height="10" rx="5" fill="#1F2937"/>
<rect x="76" y="175" width="10.5" height="10" rx="5" fill="#1F2937"/>
<rect x="76" y="200" width="10" height="10" rx="5" fill="#1F2937"/>
<rect x="101" y="250" width="10.5" height="10" rx="5" fill="#1F2937"/>
<rect x="101" width="10" height="10" rx="5" fill="#1F2937"/>
<rect x="101" y="275" width="10" height="10" rx="5" fill="#1F2937"/>
<rect x="101" y="25" width="10.5" height="10" rx="5" fill="#1F2937"/>
<rect x="101" y="50" width="10" height="10" rx="5" fill="#1F2937"/>
<rect x="101" y="175" width="10.5" height="10" rx="5" fill="#1F2937"/>
<rect x="101" y="200" width="10" height="10" rx="5" fill="#1F2937"/>
</g>
<defs>
<clipPath id="clip0_801_108">
<rect width="111.5" height="285" fill="white"/>
</clipPath>
</defs>
</svg>
